<svg id="Layer_1" data-name="Layer 1" xmlns="http://www.w3.org/2000/svg" viewBox="0 0 512 512"><title>comet-glyph</title><path d="M61.71,366a393.28,393.28,0,0,0-41.07,79.13A10.67,10.67,0,0,1,.7,437.55,414.75,414.75,0,0,1,44,354.13,10.67,10.67,0,1,1,61.71,366Zm-51-129.16a10.62,10.62,0,0,0,7-2.59c11.5-9.92,23.91-19.57,36.87-28.68a10.67,10.67,0,1,0-12.26-17.46c-13.54,9.51-26.51,19.6-38.54,30a10.67,10.67,0,0,0,7,18.74Zm68.22-49a10.65,10.65,0,0,0,5.42-1.48,459.57,459.57,0,0,1,155-57.29,10.67,10.67,0,1,0-3.69-21A481,481,0,0,0,73.45,168.07a10.67,10.67,0,0,0,5.44,19.85Zm97.5-4.22a10.65,10.65,0,0,0,13.94,5.76,423.18,423.18,0,0,1,63.88-20.76,10.67,10.67,0,1,0-5-20.75,444.53,444.53,0,0,0-67.11,21.81A10.67,10.67,0,0,0,176.39,183.69Zm-28,1.72A455.39,455.39,0,0,0,2.34,305.15,10.67,10.67,0,0,0,19,318.47,433.72,433.72,0,0,1,158.17,204.38a10.67,10.67,0,1,0-9.77-19Zm130.76-.48A413.33,413.33,0,0,0,66.44,323.85,10.67,10.67,0,0,0,83,337.31,392.12,392.12,0,0,1,284.8,205.51a10.66,10.66,0,1,0-5.63-20.57ZM137.32,334.74a379,379,0,0,0-75.12,130.7,10.67,10.67,0,0,0,6.74,13.49,10.79,10.79,0,0,0,3.38.55,10.67,10.67,0,0,0,10.11-7.3,357.84,357.84,0,0,1,70.91-123.38,10.67,10.67,0,0,0-16-14.07Zm131.3-96.89a379.36,379.36,0,0,0-104.7,69.46,10.67,10.67,0,1,0,14.56,15.59,358,358,0,0,1,98.82-65.57,10.67,10.67,0,0,0-8.68-19.49ZM509.9,111.93A23.91,23.91,0,0,0,487.77,97.5H436L410.84,46.05a23.62,23.62,0,0,0-22.35-13.54A24.23,24.23,0,0,0,367.42,45.8L341.47,97.5H290.88a24.2,24.2,0,0,0-18.68,39.56L314,188l-11.29,56.35a24.21,24.21,0,0,0,35.45,26l50.64-28.13,55.52,29.21a24.26,24.26,0,0,0,33.82-12.55,24,24,0,0,0,1.18-13.64l-11.52-57.43L507,136.4l0,0A24.1,24.1,0,0,0,509.9,111.93Z"/></svg>