<?xml version="1.0" standalone="no"?>
<svg xmlns:xlink="http://www.w3.org/1999/xlink" id="wave" style="transform:rotate(0deg); transition: 0.3s" viewBox="0 0 1440 260" version="1.1" xmlns="http://www.w3.org/2000/svg"><defs><linearGradient id="sw-gradient-0" x1="0" x2="0" y1="1" y2="0"><stop stop-color="rgba(0, 0, 0, 1)" offset="0%"/><stop stop-color="rgba(0, 0, 0, 1)" offset="100%"/></linearGradient></defs><path style="transform:translate(0, 0px); opacity:1" fill="url(#sw-gradient-0)" d="M0,78L30,86.7C60,95,120,113,180,130C240,147,300,165,360,151.7C420,139,480,95,540,95.3C600,95,660,139,720,160.3C780,182,840,182,900,164.7C960,147,1020,113,1080,86.7C1140,61,1200,43,1260,65C1320,87,1380,147,1440,151.7C1500,156,1560,104,1620,108.3C1680,113,1740,173,1800,182C1860,191,1920,147,1980,125.7C2040,104,2100,104,2160,95.3C2220,87,2280,69,2340,73.7C2400,78,2460,104,2520,130C2580,156,2640,182,2700,160.3C2760,139,2820,69,2880,65C2940,61,3000,121,3060,156C3120,191,3180,199,3240,208C3300,217,3360,225,3420,216.7C3480,208,3540,182,3600,182C3660,182,3720,208,3780,203.7C3840,199,3900,165,3960,156C4020,147,4080,165,4140,182C4200,199,4260,217,4290,225.3L4320,234L4320,260L4290,260C4260,260,4200,260,4140,260C4080,260,4020,260,3960,260C3900,260,3840,260,3780,260C3720,260,3660,260,3600,260C3540,260,3480,260,3420,260C3360,260,3300,260,3240,260C3180,260,3120,260,3060,260C3000,260,2940,260,2880,260C2820,260,2760,260,2700,260C2640,260,2580,260,2520,260C2460,260,2400,260,2340,260C2280,260,2220,260,2160,260C2100,260,2040,260,1980,260C1920,260,1860,260,1800,260C1740,260,1680,260,1620,260C1560,260,1500,260,1440,260C1380,260,1320,260,1260,260C1200,260,1140,260,1080,260C1020,260,960,260,900,260C840,260,780,260,720,260C660,260,600,260,540,260C480,260,420,260,360,260C300,260,240,260,180,260C120,260,60,260,30,260L0,260Z"/></svg>